<svg width="28" height="28" viewBox="0 0 28 28" fill="none" xmlns="http://www.w3.org/2000/svg">
<path d="M22.1667 4.66667H20.8833C20.3467 2.00667 17.99 0 15.1667 0H12.8333C10.0217 0 7.665 2.00667 7.11667 4.66667H5.83333C2.61333 4.66667 0 7.28 0 10.5V22.1667C0 25.3867 2.61333 28 5.83333 28H22.1667C25.3867 28 28 25.3867 28 22.1667V10.5C28 7.28 25.3867 4.66667 22.1667 4.66667ZM12.8333 2.33333H15.1667C16.6833 2.33333 17.9667 3.31333 18.4567 4.66667H9.555C10.0333 3.31333 11.3167 2.33333 12.845 2.33333H12.8333Z" fill="white"/>
</svg>
