<svg width="20" height="30" viewBox="0 0 20 30" fill="none" xmlns="http://www.w3.org/2000/svg">
<path d="M10 20C8.02219 20 6.08879 19.4135 4.4443 18.3147C2.79981 17.2159 1.51809 15.6541 0.761209 13.8268C0.00433281 11.9996 -0.193701 9.98891 0.192152 8.0491C0.578004 6.10929 1.53041 4.32746 2.92894 2.92894C4.32746 1.53041 6.10929 0.578004 8.0491 0.192152C9.98891 -0.193701 11.9996 0.00433281 13.8268 0.761209C15.6541 1.51809 17.2159 2.79981 18.3147 4.4443C19.4135 6.08879 20 8.02219 20 10C19.997 12.6513 18.9425 15.1931 17.0678 17.0678C15.1931 18.9425 12.6513 19.997 10 20ZM10 22.5C7.29174 22.4988 4.65806 21.6126 2.5 19.9763V26.875C2.5 27.4637 2.66627 28.0404 2.97967 28.5387C3.29307 29.0371 3.74086 29.4367 4.27146 29.6917C4.80206 29.9467 5.39389 30.0466 5.97879 29.98C6.56369 29.9133 7.11787 29.6828 7.5775 29.315L9.61 27.69C9.72075 27.6016 9.85828 27.5534 10 27.5534C10.1417 27.5534 10.2793 27.6016 10.39 27.69L12.4225 29.315C12.8821 29.6828 13.4363 29.9133 14.0212 29.98C14.6061 30.0466 15.198 29.9467 15.7286 29.6917C16.2592 29.4367 16.7069 29.0371 17.0203 28.5387C17.3337 28.0404 17.5 27.4637 17.5 26.875V19.9763C15.3419 21.6124 12.7082 22.4986 10 22.5Z" fill="white"/>
</svg>
