<svg width="33" height="28" viewBox="0 0 33 28" fill="none" xmlns="http://www.w3.org/2000/svg">
<path d="M16.0762 12.2795L26.7958 21.2377L19.2031 26.9329C17.3069 28.3557 14.6987 28.3557 12.8025 26.9329L4.62443 20.799C3.93236 20.2803 3.08962 19.9989 2.22421 19.9989H1.33479C0.597389 19.9989 0 19.4015 0 18.6655V3.91343C0 3.23603 0.50538 2.67198 1.17878 2.59597C2.98828 2.39462 4.61776 1.66789 6.28458 0.697132C8.68214 -0.536316 11.8278 -0.0962749 13.7733 1.72656L14.596 2.5173L9.25286 7.73245C7.82206 9.16192 7.59404 11.4221 8.72214 12.9836C9.41554 13.9477 10.6703 14.6624 11.9811 14.6624C13.0385 14.6624 14.0533 14.2464 14.7867 13.5117L16.0762 12.2782V12.2795ZM26.6078 0.697132C24.3543 -0.429639 21.5433 -0.136279 19.5298 1.42787L11.125 9.6313C10.6303 10.1273 10.5183 10.9207 10.8837 11.4275C11.1237 11.7608 11.4717 11.9608 11.8691 11.9942C12.2625 12.0275 12.6438 11.8848 12.9199 11.6075L17.7443 7.03505C19.0098 5.83361 20.8433 7.75112 19.5885 8.9619L18.0137 10.4247L29.4721 20.0003H30.6682C31.4042 20.0003 32.0016 19.4029 32.0016 18.6668V3.86809C32.0016 3.2147 31.5243 2.67465 30.8802 2.55864C28.6213 2.1506 26.6065 0.698466 26.6065 0.698466L26.6078 0.697132Z" fill="white"/>
</svg>
